PathFileType	4	(X/Y/Z)	C:/Users/beibeiliu/ov580/test_trc/capture2\sequence.6_training_dense_right.trc
DataRate	CameraRate	NumFrames	NumMarkers	Units	OrigDataRate	OrigDataStartFrame	OrigNumFrames
120	120	24	19	mm	120	45	353
Frame#	Time	ThumbCMC			ThumbMCP			ThumbIP			ThumbTip			IndexMCP			IndexPIP			IndexTip			MiddleMCP			MiddlePIP			MiddleTip			RingMCP			RingPIP			RingTip			PinkyMCP			PinkyPIP			PinkyTip			BackHand1			BackHand2			BackHand3	
		X0	Y0	Z0	X1	Y1	Z1	X2	Y2	Z2	X3	Y3	Z3	X4	Y4	Z4	X5	Y5	Z5	X6	Y6	Z6	X7	Y7	Z7	X8	Y8	Z8	X9	Y9	Z9	X10	Y10	Z10	X11	Y11	Z11	X12	Y12	Z12	X13	Y13	Z13	X14	Y14	Z14	X15	Y15	Z15	X16	Y16	Z16	X17	Y17	Z17	X18	Y18	Z18	
44	0.366667	129.754	62.2946	-20.0651	104.168	65.1795	-39.5547	92.16	61.7987	-65.2595	90.8003	41.9447	-84.2636	158.345	55.9466	-87.2985	150.36	58.2624	-113.01	124.925	53.8523	-132.069	131.052	41.3857	-90.24	100.415	44.5411	-85.447	105.868	47.8596	-49.4191	117.424	24.7845	-82.362	94.0489	35.4351	-65.2934	107.009	35.1402	-36.3525	116.736	10.7169	-70.3451	95.8154	21.7164	-52.5267	114.322	28.6242	-30.3954	159.064	11.2862	-41.8171	156.685	9.86289	-6.65376	162.5	42.4382	-21.4866	
45	0.375	129.088	63.812	-19.1168	102.636	66.8555	-42.5376	90.2979	64.7719	-68.2816	89.7991	42.0825	-87.8854	156.233	56.288	-83.2741	150.627	62.0347	-112.51	133.438	58.8695	-138.041	131.374	43.3317	-90.0392	101.005	47.9838	-87.6174	105.444	46.8564	-49.0157	121.974	25.8846	-80.4244	94.2158	34.8221	-65.6065	106.762	37.3723	-35.528	114.236	8.94454	-72.4624	96.7523	21.7434	-56.8288	112.781	25.3383	-26.3298	158.476	15.6831	-39.6574	159.425	9.00547	-6.72529	163.133	47.0938	-24.8462	
46	0.383333	128.028	68.4049	-18.6193	103.329	67.9153	-41.0816	89.423	65.1553	-69.8732	89.9479	45.7293	-83.6887	155.192	62.6492	-84.5258	151.131	61.5745	-112.009	140.103	58.81	-140.361	130.547	42.8747	-89.1061	99.2284	48.1884	-84.9094	104.89	47.2343	-48.9209	121.756	27.1316	-80.6272	94.0688	35.5303	-65.3276	107.582	38.3012	-35.1579	113.359	8.72461	-73.0305	95.4889	21.3383	-50.6951	113.668	29.0401	-29.6113	157.232	12.7038	-43.3422	160.267	11.367	-11.5227	162.764	44.6848	-24.7209	
47	0.391667	129.767	64.8152	-15.2877	101.749	70.3232	-40.766	89.4137	67.6796	-66.0737	91.8529	44.1679	-83.4634	154.67	64.003	-82.9548	152.04	61.1763	-112.181	146.934	63.995	-136.257	128.464	40.4256	-90.2085	97.3799	46.8398	-82.1599	105.597	49.9857	-46.5008	120.958	25.2301	-79.9846	92.598	32.2638	-62.3384	106.721	37.561	-35.036	115.169	9.62819	-71.0757	97.3389	23.6261	-54.1154	113.051	30.3435	-28.593	159.793	12.6666	-39.9365	161.181	14.3222	-7.13247	162.992	46.0152	-20.8581	
48	0.4	128.59	67.2543	-15.8631	101.225	70.9109	-38.7078	89.5194	66.3674	-67.1869	88.784	47.871	-83.128	154.927	61.5216	-88.6699	152.501	66.5601	-108.744	148.456	61.2195	-134.214	127.674	40.2949	-90.2539	98.1996	47.3544	-84.3622	104.034	49.32	-47.3434	119.414	27.4543	-80.7943	93.1352	32.5077	-66.0984	110.205	36.0495	-31.9804	116.143	8.20031	-69.8157	94.3714	19.0422	-51.0446	112.846	29.7346	-28.3209	158.493	13.0109	-38.3029	161.393	12.1452	-10.0795	163.188	46.3079	-22.3536	
49	0.408333	129.569	65.5491	-18.0685	102.67	69.4426	-43.6386	89.3307	67.7551	-64.6196	89.6569	46.0851	-84.3793	153.435	60.7564	-85.2499	150.878	63.9244	-114.527	147.817	62.0858	-139.253	130.92	44.0724	-87.8674	96.0735	44.024	-82.0535	102.823	47.7855	-48.809	116.593	24.1591	-80.6628	93.2761	35.0285	-65.8684	108.938	37.6566	-32.1854	117.636	10.6722	-69.7986	95.1021	19.4642	-50.7833	111.49	29.5439	-27.3504	158.59	13.7742	-41.2263	159.435	15.3844	-10.477	164.141	45.7903	-22.7603	
50	0.416667	127.839	69.5321	-20.0866	100.011	71.7457	-41.7924	89.322	67.4916	-64.9563	89.0866	46.0809	-87.004	155.054	63.5133	-87.452	152.131	65.7549	-113.142	148.409	62.7535	-136.784	126.691	44.8373	-91.9183	98.2735	48.3525	-85.6411	103.007	44.3616	-48.2654	116.79	23.8797	-81.3217	92.4885	32.9391	-65.9369	108.267	35.7533	-32.5159	115.386	11.2546	-70.3432	95.8408	24.5872	-53.7259	112.739	25.7224	-26.3714	158.575	17.5025	-44.1316	161.162	15.8612	-12.0708	162.286	45.1806	-22.6489	
51	0.425	126.879	70.0265	-16.5867	101.942	68.8601	-44.2165	90.0907	64.3885	-65.392	89.5927	44.769	-86.1326	154.122	60.2791	-84.9018	150.207	62.0151	-110.609	146.09	63.5425	-137.941	129.9	42.7448	-88.9214	98.1346	47.4039	-86.6203	103.745	50.3403	-47.6452	117.762	22.2917	-81.0989	92.3849	36.2347	-64.1664	107.417	36.236	-33.2169	114.225	11.6812	-71.5665	94.2206	19.1027	-54.1701	114.657	28.71	-26.4494	158.343	16.3905	-43.9092	159.625	11.8361	-10.5424	163.611	47.2494	-23.6436	
52	0.433333	127.96	70.2182	-18.8265	99.8503	70.6301	-43.2	90.2774	63.4756	-67.49	87.5679	46.9634	-86.2475	153.361	59.4306	-89.329	150.062	64.0863	-115.334	140.135	57.7878	-141.943	127.219	41.7672	-91.9594	98.2655	49.4756	-86.4632	103.489	46.9868	-48.7329	116.036	26.7836	-82.568	92.2501	34.7391	-66.5027	106.626	37.4861	-34.3467	115.451	11.6321	-71.7606	94.3052	23.4434	-55.1884	111.815	29.8172	-28.821	157.696	13.6938	-42.4918	158.36	16.2546	-7.66818	161.349	44.9183	-24.3538	
53	0.441667	127.841	69.9389	-18.0413	99.5672	72.7945	-42.2555	88.7314	66.9603	-65.0898	88.098	44.9805	-88.1224	153.804	59.3787	-85.268	149.371	59.0945	-111.875	134.761	56.2083	-136.374	129.282	44.8084	-90.3145	95.6223	48.1278	-84.0607	102.364	47.3289	-49.3301	114.509	25.1249	-83.2551	91.006	33.7709	-67.5266	107.236	42.2324	-36.3758	114.255	9.47431	-71.3965	92.3906	20.2771	-54.6372	109.602	31.8364	-29.7848	157.543	14.0996	-39.6692	158.382	15.6855	-8.87568	163.281	48.0532	-24.412	
54	0.45	128.424	67.7853	-17.7198	102.491	70.3306	-40.124	90.9378	66.9497	-68.012	88.5948	49.59	-84.5513	155.077	57.8076	-88.6095	146.56	60.4092	-116.848	126.708	58.1053	-133.918	128.252	44.4573	-91.6073	96.9377	49.9857	-83.7813	103.141	53.0054	-51.1839	115.521	29.0208	-82.3442	90.984	34.035	-66.9984	104.547	41.2404	-37.2386	111.471	13.3141	-71.9051	94.1605	25.6712	-52.6978	115.565	31.2806	-26.4311	156.195	17.6558	-41.9981	157.199	14.7498	-8.01078	163.588	48.335	-26.5457	
55	0.458333	129.498	68.1756	-18.7489	104.995	70.8802	-44.0052	92.3075	69.4752	-66.1324	92.2077	47.1249	-85.4157	155.794	60.6067	-86.9785	144.492	59.0833	-114.33	118.751	59.8615	-126.245	130.073	44.7534	-90.9064	99.8692	51.2889	-86.3702	107.971	52.0955	-49.0019	118.023	26.1282	-81.341	93.7467	41.726	-65.8784	106.933	40.3268	-34.8642	114.432	14.0542	-70.8663	93.5936	26.0793	-50.9806	113.726	35.2689	-28.5226	157.355	16.3406	-42.0762	156.338	15.9993	-7.32899	163.256	51.0049	-25.1941	
56	0.466667	129.877	69.8351	-18.4265	103.463	72.8933	-43.0983	94.3519	68.9744	-67.8611	92.5754	49.9305	-86.0487	154.838	59.2329	-86.7219	143.987	62.3438	-111.92	110.463	63.9455	-118.276	131.748	45.8657	-90.2421	101.394	49.7422	-88.3761	106.787	53.3195	-51.5168	120.127	30.7184	-80.7414	92.0098	37.5294	-65.7728	106.603	39.6235	-36.1186	115.246	17.2757	-70.7303	93.5174	26.026	-51.5145	114.66	30.2192	-26.6305	156.261	16.3524	-38.9584	157.744	17.0217	-7.7543	162.368	48.3768	-24.6028	
57	0.475	128.426	71.3043	-16.7192	102.854	74.5395	-44.6729	91.1266	71.1728	-71.0338	92.1182	51.8565	-83.5161	154.456	63.1021	-84.6929	140.164	61.4478	-112.898	106.661	63.3246	-112.458	130.234	44.7346	-89.9031	98.8798	52.1723	-85.7234	105.953	51.8964	-51.1889	118.927	28.1013	-80.5294	92.2588	38.1976	-67.3725	108.185	44.7708	-36.7946	111.381	15.3421	-71.5029	95.2224	29.4783	-53.1263	117.12	33.9545	-25.7511	157.547	20.8979	-38.8547	157.399	17.554	-10.4587	161.929	48.8408	-24.1209	
58	0.483333	128.885	71.9616	-19.655	101.554	76.1105	-41.1183	89.9308	74.7117	-66.6255	91.1363	50.277	-84.2983	152.822	61.9186	-85.036	139.258	65.5303	-114.578	108.472	66.0668	-116.543	130.873	46.0878	-88.8758	97.2015	50.1196	-84.1857	107.499	56.4242	-48.7424	119.29	33.3252	-81.2726	92.1115	37.7415	-64.801	106.21	43.6065	-37.1854	112.381	15.4538	-70.7498	94.0611	28.4739	-51.0617	114.284	33.1736	-24.9422	155.061	18.5427	-38.0564	157.138	18.0606	-5.49111	162.008	50.2523	-22.4391	
59	0.491667	129.02	71.5191	-18.8161	101.037	79.2759	-41.7033	92.3042	69.6756	-67.5368	89.6325	51.9481	-82.8582	153.246	65.6802	-85.8797	141.099	63.4886	-113.464	109.953	61.972	-122.445	126.679	47.3572	-90.9045	96.517	52.7118	-83.9917	103.833	54.9867	-49.4831	116.362	30.5724	-81.9184	90.3809	38.7606	-65.0244	105.627	41.5204	-35.7376	112.874	14.5302	-70.4242	92.6055	26.9966	-51.1367	112.882	33.8428	-28.6809	154.712	20.6547	-42.9345	157.528	18.7689	-6.65169	162.755	49.3538	-22.5583	
60	0.5	128.5	76.2582	-16.5857	103.423	76.5261	-40.9166	90.3266	74.6031	-66.2589	87.5172	53.4627	-85.4282	153.083	64.1004	-88.9111	139.571	67.7382	-116.829	113.174	67.7009	-131.07	129.306	50.5149	-89.0401	97.8867	58.1557	-85.5736	107.08	55.2441	-45.8538	112.53	32.7588	-82.5262	90.9509	40.897	-64.8315	106.846	43.7945	-34.6405	111.221	15.5208	-69.8914	95.1664	34.0127	-51.2633	112.45	33.4778	-26.6383	155.45	19.6962	-42.1604	157.759	19.3771	-8.89396	163.244	51.138	-26.8549	
61	0.508333	129.469	77.0071	-20.2918	100.444	82.7554	-39.323	87.9411	78.4373	-66.6882	88.7368	55.5709	-81.2991	152.698	68.9201	-84.7687	141.31	67.3943	-115.873	122.191	71.0304	-133.067	127.508	49.1869	-87.741	96.2261	61.1238	-83.3078	104.674	61.6108	-48.1498	114.955	38.0257	-80.9943	90.6504	45.721	-67.2356	104.103	47.6212	-34.8181	110.061	23.0828	-70.8572	92.6698	32.9162	-52.2203	117.715	39.9425	-27.1017	153.172	21.7429	-43.3307	156.779	20.9208	-10.4111	163	55.7154	-25.6551	
62	0.516667	130.406	80.9552	-18.5564	102.106	83.4773	-39.6664	89.2123	79.9537	-68.5507	87.8461	59.4268	-83.732	151.839	69.7679	-84.8876	144.39	71.1664	-111.794	127.751	75.7608	-136.643	124.45	54.642	-92.0697	96.6482	64.1119	-83.6498	106.259	61.6199	-45.9961	114.984	37.4814	-80.1179	90.6508	52.1262	-63.4648	107.931	51.5302	-32.1406	109.938	21.8485	-70.3349	93.8159	38.8091	-50.3124	118.148	43.2909	-29.3543	154.076	25.4322	-40.6405	157.234	21.5318	-8.33282	161.43	55.9842	-27.0061	
63	0.525	129.174	83.527	-19.8113	101.844	85.321	-40.9367	88.5754	83.6902	-66.5198	86.8412	59.5448	-85.541	151.469	73.2417	-85.9705	146.658	81.9988	-114.522	131.37	77.257	-138.301	125.368	56.9141	-89.4282	96.8433	64.6252	-84.9204	106.594	62.5024	-44.4759	115.115	39.7694	-79.8896	90.0038	49.7647	-64.0543	104.761	52.3144	-34.6724	110.345	24.9735	-70.3462	94.0904	40.5703	-53.7846	114.985	44.283	-27.7129	155.463	27.8303	-44.6914	157.014	25.9281	-8.51223	161.304	61.0955	-26.9415	
64	0.533333	129.007	84.0162	-13.7881	100.411	89.2929	-41.9965	87.0035	86.9458	-63.3044	88.0374	62.7383	-83.7669	152.878	82.5793	-83.4654	146.757	87.871	-114.708	136.51	84.4484	-138.276	126.079	65.3065	-89.3492	95.7587	66.652	-82.806	103.971	68.9493	-46.8661	115.21	45.1975	-80.6279	88.6129	53.399	-60.5916	103.969	56.9376	-35.1209	111.389	31.0439	-71.1968	93.5944	43.3955	-51.043	114.047	44.6717	-26.1242	154.649	30.5766	-45.5545	158.218	28.2077	-10.5674	161.116	61.9686	-24.8147	
65	0.541667	128.209	88.1297	-15.1717	101.628	88.842	-38.8326	88.691	89.2703	-63.2653	87.6352	68.4072	-81.5903	152.158	85.7752	-82.9454	146.36	87.6884	-112.701	140.947	89.1492	-134.696	123.555	65.4858	-91.8223	95.8277	70.6957	-83.3634	102.632	72.461	-48.2394	113.972	52.4823	-81.1418	90.9904	59.707	-63.6057	107.433	61.7694	-34.0863	110.52	36.0859	-71.8306	93.9592	45.6035	-48.9078	114.139	49.0233	-28.7543	155.518	34.5253	-42.9305	157.449	33.5282	-9.41034	163.201	64.0111	-27.5118	
66	0.55	128.312	91.2531	-14.7479	101.439	92.0844	-36.8279	88.8813	92.1493	-65.6922	89.6281	70.8421	-81.6115	151.635	88.741	-85.7279	149.304	96.084	-108.173	143.103	97.1945	-137.214	127.198	70.5418	-88.6193	95.7082	75.0225	-82.6203	105.961	72.4176	-45.2991	112.194	54.4595	-82.5013	90.264	61.4631	-60.5596	106.613	63.3805	-34.4396	111.87	38.3008	-72.871	93.5967	47.9867	-54.104	115.229	48.6935	-26.6809	156.35	36.1562	-46.9271	157.223	34.3636	-12.8092	161.859	67.4665	-24.0582	
67	0.558333	128.512	94.8383	-13.645	101.782	95.3273	-37.582	91.4863	92.0745	-64.8715	88.727	76.126	-82.6667	152.462	93.0325	-84.7401	148.678	101.662	-109.438	143.286	100.535	-135.591	124.97	78.8136	-89.9493	96.639	78.2865	-83.1382	103.869	74.605	-47.1711	117.77	55.9504	-81.8447	91.6564	64.2374	-65.6383	106.729	64.3946	-35.457	112.683	39.2679	-73.7479	95.0268	54.2235	-51.8659	113.6	52.6066	-27.9177	157.094	41.5375	-43.8481	159.352	34.9516	-10.9566	163.24	73.6884	-26.1631	
